<svg xmlns="http://www.w3.org/2000/svg" width="1500" height="640" viewBox="0 0 1500 640" role="img" aria-label="A door in the night sky, with an orbit passing through it"><defs><pattern id="mcp-ht-hero" width="14" height="14" patternUnits="userSpaceOnUse" patternTransform="rotate(45)"><circle cx="7" cy="7" r="3.2" fill="#1F2A36"/></pattern><pattern id="mcp-ht-planet" width="9" height="9" patternUnits="userSpaceOnUse" patternTransform="rotate(45)"><circle cx="4.5" cy="4.5" r="2.4" fill="#1F2A36"/></pattern></defs><path d="M976.14 244.23a2.63 2.63 0 1 0 5.27 0a2.63 2.63 0 1 0 -5.27 0M476.82 248.73a2.3 2.3 0 1 0 4.6 0a2.3 2.3 0 1 0 -4.6 0M1212.35 450.39a0.97 0.97 0 1 0 1.95 0a0.97 0.97 0 1 0 -1.95 0M919.07 518.65a1.56 1.56 0 1 0 3.12 0a1.56 1.56 0 1 0 -3.12 0M1218.08 59.51a2.45 2.45 0 1 0 4.89 0a2.45 2.45 0 1 0 -4.89 0M951.32 9.4a2.89 2.89 0 1 0 5.77 0a2.89 2.89 0 1 0 -5.77 0M658.62 581.76a2.52 2.52 0 1 0 5.05 0a2.52 2.52 0 1 0 -5.05 0M862.51 183.54a2.08 2.08 0 1 0 4.16 0a2.08 2.08 0 1 0 -4.16 0M931.34 347.41a1.96 1.96 0 1 0 3.92 0a1.96 1.96 0 1 0 -3.92 0M439.82 130.57a2.46 2.46 0 1 0 4.92 0a2.46 2.46 0 1 0 -4.92 0M683.52 106.98a0.84 0.84 0 1 0 1.68 0a0.84 0.84 0 1 0 -1.68 0M237.77 553.74a2.66 2.66 0 1 0 5.33 0a2.66 2.66 0 1 0 -5.33 0M391.91 50.33a0.84 0.84 0 1 0 1.68 0a0.84 0.84 0 1 0 -1.68 0M1073.2 322.94a1.41 1.41 0 1 0 2.81 0a1.41 1.41 0 1 0 -2.81 0M419.82 35.3a1.75 1.75 0 1 0 3.49 0a1.75 1.75 0 1 0 -3.49 0M466.9 44.2a1.16 1.16 0 1 0 2.32 0a1.16 1.16 0 1 0 -2.32 0M906.32 206.28a2.79 2.79 0 1 0 5.58 0a2.79 2.79 0 1 0 -5.58 0M1034.96 548.61a2.79 2.79 0 1 0 5.58 0a2.79 2.79 0 1 0 -5.58 0M770.12 17.75a1.43 1.43 0 1 0 2.85 0a1.43 1.43 0 1 0 -2.85 0M143.78 75.49a0.9 0.9 0 1 0 1.81 0a0.9 0.9 0 1 0 -1.81 0M577.54 74.77a2.77 2.77 0 1 0 5.55 0a2.77 2.77 0 1 0 -5.55 0M575.32 323.49a2.18 2.18 0 1 0 4.36 0a2.18 2.18 0 1 0 -4.36 0M499.47 5.71a0.87 0.87 0 1 0 1.74 0a0.87 0.87 0 1 0 -1.74 0M754.52 90.58a2.27 2.27 0 1 0 4.54 0a2.27 2.27 0 1 0 -4.54 0M58.59 577.49a1.5 1.5 0 1 0 3 0a1.5 1.5 0 1 0 -3 0M467.55 394.45a2.83 2.83 0 1 0 5.65 0a2.83 2.83 0 1 0 -5.65 0M463.54 539.56a2.97 2.97 0 1 0 5.94 0a2.97 2.97 0 1 0 -5.94 0M1100.86 614a1.45 1.45 0 1 0 2.91 0a1.45 1.45 0 1 0 -2.91 0M985.77 98.25a2.99 2.99 0 1 0 5.99 0a2.99 2.99 0 1 0 -5.99 0M914.49 464.05a1.45 1.45 0 1 0 2.91 0a1.45 1.45 0 1 0 -2.91 0M986.47 493.38a1.86 1.86 0 1 0 3.71 0a1.86 1.86 0 1 0 -3.71 0M954.22 432.44a1.28 1.28 0 1 0 2.55 0a1.28 1.28 0 1 0 -2.55 0M1295.8 627.55a2.65 2.65 0 1 0 5.29 0a2.65 2.65 0 1 0 -5.29 0M21.8 272.67a1.6 1.6 0 1 0 3.21 0a1.6 1.6 0 1 0 -3.21 0M1268.12 172.82a1.87 1.87 0 1 0 3.75 0a1.87 1.87 0 1 0 -3.75 0M853.35 289.12a1.8 1.8 0 1 0 3.6 0a1.8 1.8 0 1 0 -3.6 0M1022.01 552.29a0.99 0.99 0 1 0 1.99 0a0.99 0.99 0 1 0 -1.99 0M1036.24 363.61a2.01 2.01 0 1 0 4.02 0a2.01 2.01 0 1 0 -4.02 0M404.83 531.95a0.83 0.83 0 1 0 1.67 0a0.83 0.83 0 1 0 -1.67 0M1298.85 102.59a1.83 1.83 0 1 0 3.66 0a1.83 1.83 0 1 0 -3.66 0M216.77 308.64a1.34 1.34 0 1 0 2.67 0a1.34 1.34 0 1 0 -2.67 0M200.84 322.74a1.78 1.78 0 1 0 3.56 0a1.78 1.78 0 1 0 -3.56 0M603.71 289.64a2.26 2.26 0 1 0 4.51 0a2.26 2.26 0 1 0 -4.51 0M693.1 143.4a1.73 1.73 0 1 0 3.47 0a1.73 1.73 0 1 0 -3.47 0M1400.84 116.2a2.78 2.78 0 1 0 5.56 0a2.78 2.78 0 1 0 -5.56 0M787.28 355.84a2.33 2.33 0 1 0 4.65 0a2.33 2.33 0 1 0 -4.65 0M516.01 521.64a1.95 1.95 0 1 0 3.9 0a1.95 1.95 0 1 0 -3.9 0M1067.4 42.1a1.24 1.24 0 1 0 2.48 0a1.24 1.24 0 1 0 -2.48 0M576 558.88a1.49 1.49 0 1 0 2.97 0a1.49 1.49 0 1 0 -2.97 0M961 432.04a2.59 2.59 0 1 0 5.18 0a2.59 2.59 0 1 0 -5.18 0M71.39 159.71a2.97 2.97 0 1 0 5.94 0a2.97 2.97 0 1 0 -5.94 0M175.12 259.87a1.67 1.67 0 1 0 3.35 0a1.67 1.67 0 1 0 -3.35 0M424.52 320.26a2.78 2.78 0 1 0 5.57 0a2.78 2.78 0 1 0 -5.57 0M1022.67 429.27a2.7 2.7 0 1 0 5.39 0a2.7 2.7 0 1 0 -5.39 0M1055.74 352.92a2.75 2.75 0 1 0 5.5 0a2.75 2.75 0 1 0 -5.5 0M194.52 245.42a1.26 1.26 0 1 0 2.52 0a1.26 1.26 0 1 0 -2.52 0M702.6 289.84a1.94 1.94 0 1 0 3.89 0a1.94 1.94 0 1 0 -3.89 0M425.25 335.9a2.16 2.16 0 1 0 4.33 0a2.16 2.16 0 1 0 -4.33 0M286.24 422.42a2.47 2.47 0 1 0 4.95 0a2.47 2.47 0 1 0 -4.95 0M101.42 170.79a1.31 1.31 0 1 0 2.62 0a1.31 1.31 0 1 0 -2.62 0M286.78 241.2a2.58 2.58 0 1 0 5.16 0a2.58 2.58 0 1 0 -5.16 0M1009.01 44.85a2.63 2.63 0 1 0 5.26 0a2.63 2.63 0 1 0 -5.26 0M505.25 615.18a2.57 2.57 0 1 0 5.15 0a2.57 2.57 0 1 0 -5.15 0M583.35 333.79a2.59 2.59 0 1 0 5.18 0a2.59 2.59 0 1 0 -5.18 0M1326.62 377.54a1.01 1.01 0 1 0 2.03 0a1.01 1.01 0 1 0 -2.03 0M249.57 402a2.41 2.41 0 1 0 4.82 0a2.41 2.41 0 1 0 -4.82 0M1026.91 91.05a1.62 1.62 0 1 0 3.25 0a1.62 1.62 0 1 0 -3.25 0M1485.59 182.33a2.35 2.35 0 1 0 4.71 0a2.35 2.35 0 1 0 -4.71 0M234.46 128.57a2.02 2.02 0 1 0 4.05 0a2.02 2.02 0 1 0 -4.05 0M433.43 106.3a1.93 1.93 0 1 0 3.86 0a1.93 1.93 0 1 0 -3.86 0M847.5 120.09a1.1 1.1 0 1 0 2.21 0a1.1 1.1 0 1 0 -2.21 0M1200.17 613.5a1.66 1.66 0 1 0 3.33 0a1.66 1.66 0 1 0 -3.33 0M1301.92 12.28a1.6 1.6 0 1 0 3.2 0a1.6 1.6 0 1 0 -3.2 0M519.59 108.73a2.49 2.49 0 1 0 4.97 0a2.49 2.49 0 1 0 -4.97 0M848.37 17.64a2.47 2.47 0 1 0 4.94 0a2.47 2.47 0 1 0 -4.94 0M530.08 566.85a0.92 0.92 0 1 0 1.84 0a0.92 0.92 0 1 0 -1.84 0M1345.88 527.13a1.27 1.27 0 1 0 2.54 0a1.27 1.27 0 1 0 -2.54 0M870.35 482.79a0.93 0.93 0 1 0 1.86 0a0.93 0.93 0 1 0 -1.86 0M314.22 516.61a1.93 1.93 0 1 0 3.85 0a1.93 1.93 0 1 0 -3.85 0M523.77 603.34a1.08 1.08 0 1 0 2.16 0a1.08 1.08 0 1 0 -2.16 0M1467.64 152.85a1.67 1.67 0 1 0 3.34 0a1.67 1.67 0 1 0 -3.34 0M220.35 189.28a2.19 2.19 0 1 0 4.39 0a2.19 2.19 0 1 0 -4.39 0M1348.65 393.23a1.06 1.06 0 1 0 2.13 0a1.06 1.06 0 1 0 -2.13 0M925.45 263.35a2.74 2.74 0 1 0 5.47 0a2.74 2.74 0 1 0 -5.47 0M1484.47 630.68a1.19 1.19 0 1 0 2.39 0a1.19 1.19 0 1 0 -2.39 0M1329.9 588.25a2.48 2.48 0 1 0 4.96 0a2.48 2.48 0 1 0 -4.96 0M200.6 528.86a2.31 2.31 0 1 0 4.62 0a2.31 2.31 0 1 0 -4.62 0M1410.66 105.28a1.44 1.44 0 1 0 2.87 0a1.44 1.44 0 1 0 -2.87 0M1289.66 239.35a0.98 0.98 0 1 0 1.96 0a0.98 0.98 0 1 0 -1.96 0M128.44 174.88a0.99 0.99 0 1 0 1.98 0a0.99 0.99 0 1 0 -1.98 0M1439.47 602.76a2.19 2.19 0 1 0 4.39 0a2.19 2.19 0 1 0 -4.39 0M981.59 515.26a2.01 2.01 0 1 0 4.01 0a2.01 2.01 0 1 0 -4.01 0M1217.44 309.3a0.81 0.81 0 1 0 1.63 0a0.81 0.81 0 1 0 -1.63 0M347.01 577.46a0.87 0.87 0 1 0 1.74 0a0.87 0.87 0 1 0 -1.74 0M233.58 409.23a2.89 2.89 0 1 0 5.78 0a2.89 2.89 0 1 0 -5.78 0M988.54 108.19a2.42 2.42 0 1 0 4.85 0a2.42 2.42 0 1 0 -4.85 0M774.91 268.6a0.88 0.88 0 1 0 1.76 0a0.88 0.88 0 1 0 -1.76 0M1340.44 260.49a1.8 1.8 0 1 0 3.61 0a1.8 1.8 0 1 0 -3.61 0M1287.24 450.44a1.15 1.15 0 1 0 2.3 0a1.15 1.15 0 1 0 -2.3 0M1347.14 306.17a2.73 2.73 0 1 0 5.46 0a2.73 2.73 0 1 0 -5.46 0M724.38 340.88a2.53 2.53 0 1 0 5.06 0a2.53 2.53 0 1 0 -5.06 0M1259.27 532.45a0.99 0.99 0 1 0 1.99 0a0.99 0.99 0 1 0 -1.99 0M827.26 401.72a0.93 0.93 0 1 0 1.85 0a0.93 0.93 0 1 0 -1.85 0M1107.43 283.55a2.76 2.76 0 1 0 5.52 0a2.76 2.76 0 1 0 -5.52 0M665.3 546.6a2.36 2.36 0 1 0 4.72 0a2.36 2.36 0 1 0 -4.72 0M761.5 199.23a1.95 1.95 0 1 0 3.9 0a1.95 1.95 0 1 0 -3.9 0M1395.06 620.99a2.41 2.41 0 1 0 4.81 0a2.41 2.41 0 1 0 -4.81 0M415.06 518.24a2.78 2.78 0 1 0 5.56 0a2.78 2.78 0 1 0 -5.56 0M33.63 284.01a2.25 2.25 0 1 0 4.49 0a2.25 2.25 0 1 0 -4.49 0M1115.17 208.46a2.86 2.86 0 1 0 5.72 0a2.86 2.86 0 1 0 -5.72 0M541.37 283.64a2.72 2.72 0 1 0 5.45 0a2.72 2.72 0 1 0 -5.45 0M210.85 79.83a1.32 1.32 0 1 0 2.64 0a1.32 1.32 0 1 0 -2.64 0M1336.53 565.06a2.8 2.8 0 1 0 5.59 0a2.8 2.8 0 1 0 -5.59 0M1146.48 111.38a1.76 1.76 0 1 0 3.52 0a1.76 1.76 0 1 0 -3.52 0M960.28 636.03a2.61 2.61 0 1 0 5.21 0a2.61 2.61 0 1 0 -5.21 0M1225.15 625.69a2.1 2.1 0 1 0 4.2 0a2.1 2.1 0 1 0 -4.2 0M1334.58 188.27a2.43 2.43 0 1 0 4.86 0a2.43 2.43 0 1 0 -4.86 0M919.46 475.94a1.41 1.41 0 1 0 2.83 0a1.41 1.41 0 1 0 -2.83 0M15.76 470.4a2.05 2.05 0 1 0 4.09 0a2.05 2.05 0 1 0 -4.09 0M596.71 63.77a2.64 2.64 0 1 0 5.27 0a2.64 2.64 0 1 0 -5.27 0M1339.66 272.86a0.89 0.89 0 1 0 1.79 0a0.89 0.89 0 1 0 -1.79 0M1224.34 459.5a1.3 1.3 0 1 0 2.6 0a1.3 1.3 0 1 0 -2.6 0M551.8 579.17a1.5 1.5 0 1 0 3.01 0a1.5 1.5 0 1 0 -3.01 0M1061.08 259.3a2.4 2.4 0 1 0 4.81 0a2.4 2.4 0 1 0 -4.81 0M123.56 460.85a2.22 2.22 0 1 0 4.44 0a2.22 2.22 0 1 0 -4.44 0M1023.48 485.7a2.78 2.78 0 1 0 5.56 0a2.78 2.78 0 1 0 -5.56 0M335.11 364.15a1.15 1.15 0 1 0 2.29 0a1.15 1.15 0 1 0 -2.29 0M511.39 167.71a0.9 0.9 0 1 0 1.8 0a0.9 0.9 0 1 0 -1.8 0M686.04 441.87a2.81 2.81 0 1 0 5.61 0a2.81 2.81 0 1 0 -5.61 0M700.39 276.86a1.07 1.07 0 1 0 2.15 0a1.07 1.07 0 1 0 -2.15 0" fill="#F2E6CF" fill-opacity=".5"/><circle cx="1400" cy="120" r="56" fill="#E0A526"/><circle cx="1400" cy="120" r="56" fill="url(#mcp-ht-planet)" fill-opacity=".4"/><path d="M871.62 552.69A300 80 -16 0 1 1448.38 387.31" fill="none" stroke="#E0A526" stroke-width="12" stroke-linecap="round"/><path d="M1010 640V320A150 150 0 0 1 1310 320V640Z" fill="#2A8C82"/><path d="M1010 640V320A150 150 0 0 1 1310 320V640Z" fill="url(#mcp-ht-hero)" fill-opacity=".35"/><path d="M1074 640V354A86 86 0 0 1 1246 354V640Z" fill="#F2E6CF"/><circle cx="1160" cy="370" r="34" fill="#C4452C"/><path d="M1448.38 387.31A300 80 -16 0 1 871.62 552.69" fill="none" stroke="#E0A526" stroke-width="14" stroke-linecap="round"/><path d="M1010 640V320A150 150 0 0 1 1310 320V640Z" fill="none" stroke="#F2E6CF" stroke-width="3" stroke-opacity=".5" transform="translate(9 -6)"/></svg>
